<mxfile host="app.diagrams.net" modified="2023-02-07T15:09:10.945Z" agent="5.0 (Windows NT 10.0; Win64; x64) AppleWebKit/537.36 (KHTML, like Gecko) Chrome/109.0.0.0 Safari/537.36" etag="uUZWqG2xqPTUOQ8w_RUC" version="20.8.16" type="github">
  <diagram name="Page-1" id="S_tBgMu1JSRGlGSUAzFM">
    <mxGraphModel dx="1050" dy="581" grid="1" gridSize="10" guides="1" tooltips="1" connect="1" arrows="1" fold="1" page="1" pageScale="1" pageWidth="827" pageHeight="1169" math="0" shadow="0">
      <root>
        <mxCell id="0" />
        <mxCell id="1" parent="0" />
        <mxCell id="q5yNdChSYQjeh7XCgGH9-1" value="Pool" style="swimlane;childLayout=stackLayout;resizeParent=1;resizeParentMax=0;startSize=20;html=1;" vertex="1" parent="1">
          <mxGeometry x="234.00000000000045" y="60" width="500" height="480" as="geometry" />
        </mxCell>
        <mxCell id="q5yNdChSYQjeh7XCgGH9-2" value="Người dùng" style="swimlane;startSize=20;html=1;" vertex="1" parent="q5yNdChSYQjeh7XCgGH9-1">
          <mxGeometry y="20" width="250" height="460" as="geometry" />
        </mxCell>
        <mxCell id="q5yNdChSYQjeh7XCgGH9-5" value="" style="ellipse;html=1;shape=startState;fillColor=#000000;strokeColor=#000000;" vertex="1" parent="q5yNdChSYQjeh7XCgGH9-2">
          <mxGeometry x="109.99999999999955" y="40" width="30" height="30" as="geometry" />
        </mxCell>
        <mxCell id="q5yNdChSYQjeh7XCgGH9-6" value="" style="edgeStyle=orthogonalEdgeStyle;html=1;verticalAlign=bottom;endArrow=open;endSize=8;strokeColor=#000000;rounded=0;entryX=0.5;entryY=0;entryDx=0;entryDy=0;" edge="1" source="q5yNdChSYQjeh7XCgGH9-5" parent="q5yNdChSYQjeh7XCgGH9-2" target="q5yNdChSYQjeh7XCgGH9-7">
          <mxGeometry relative="1" as="geometry">
            <mxPoint x="124.99999999999955" y="130" as="targetPoint" />
          </mxGeometry>
        </mxCell>
        <mxCell id="q5yNdChSYQjeh7XCgGH9-7" value="Chọn chức năng Tiện ích" style="rounded=1;whiteSpace=wrap;html=1;strokeColor=#000000;" vertex="1" parent="q5yNdChSYQjeh7XCgGH9-2">
          <mxGeometry x="65" y="110" width="120" height="40" as="geometry" />
        </mxCell>
        <mxCell id="q5yNdChSYQjeh7XCgGH9-10" value="Chọn phân loại" style="rounded=1;whiteSpace=wrap;html=1;strokeColor=#000000;" vertex="1" parent="q5yNdChSYQjeh7XCgGH9-2">
          <mxGeometry x="65.99999999999955" y="220" width="120" height="40" as="geometry" />
        </mxCell>
        <mxCell id="q5yNdChSYQjeh7XCgGH9-14" value="Chọn tiện ích" style="rounded=1;whiteSpace=wrap;html=1;strokeColor=#000000;" vertex="1" parent="q5yNdChSYQjeh7XCgGH9-2">
          <mxGeometry x="65.99999999999955" y="330" width="120" height="40" as="geometry" />
        </mxCell>
        <mxCell id="q5yNdChSYQjeh7XCgGH9-3" value="Hệ thống" style="swimlane;startSize=20;html=1;" vertex="1" parent="q5yNdChSYQjeh7XCgGH9-1">
          <mxGeometry x="250" y="20" width="250" height="460" as="geometry" />
        </mxCell>
        <mxCell id="q5yNdChSYQjeh7XCgGH9-8" value="Hiển thị danh mục phân loại tiện ích" style="rounded=1;whiteSpace=wrap;html=1;strokeColor=#000000;" vertex="1" parent="q5yNdChSYQjeh7XCgGH9-3">
          <mxGeometry x="64.99999999999955" y="110" width="120" height="40" as="geometry" />
        </mxCell>
        <mxCell id="q5yNdChSYQjeh7XCgGH9-12" value="Hiển thị danh sách tiện ích" style="rounded=1;whiteSpace=wrap;html=1;strokeColor=#000000;" vertex="1" parent="q5yNdChSYQjeh7XCgGH9-3">
          <mxGeometry x="64.99999999999955" y="220" width="120" height="40" as="geometry" />
        </mxCell>
        <mxCell id="q5yNdChSYQjeh7XCgGH9-19" style="edgeStyle=none;rounded=0;orthogonalLoop=1;jettySize=auto;html=1;entryX=0.5;entryY=0;entryDx=0;entryDy=0;strokeColor=#000000;endArrow=open;endFill=0;" edge="1" parent="q5yNdChSYQjeh7XCgGH9-3" source="q5yNdChSYQjeh7XCgGH9-16" target="q5yNdChSYQjeh7XCgGH9-18">
          <mxGeometry relative="1" as="geometry" />
        </mxCell>
        <mxCell id="q5yNdChSYQjeh7XCgGH9-16" value="Hiển thị thông tin chi tiết" style="rounded=1;whiteSpace=wrap;html=1;strokeColor=#000000;" vertex="1" parent="q5yNdChSYQjeh7XCgGH9-3">
          <mxGeometry x="64.99999999999955" y="330" width="120" height="40" as="geometry" />
        </mxCell>
        <mxCell id="q5yNdChSYQjeh7XCgGH9-18" value="" style="ellipse;html=1;shape=endState;fillColor=#000000;strokeColor=#000000;" vertex="1" parent="q5yNdChSYQjeh7XCgGH9-3">
          <mxGeometry x="109.99999999999955" y="410" width="30" height="30" as="geometry" />
        </mxCell>
        <mxCell id="q5yNdChSYQjeh7XCgGH9-9" style="edgeStyle=orthogonalEdgeStyle;rounded=0;orthogonalLoop=1;jettySize=auto;html=1;strokeColor=#000000;endArrow=open;endFill=0;" edge="1" parent="q5yNdChSYQjeh7XCgGH9-1" source="q5yNdChSYQjeh7XCgGH9-7" target="q5yNdChSYQjeh7XCgGH9-8">
          <mxGeometry relative="1" as="geometry" />
        </mxCell>
        <mxCell id="q5yNdChSYQjeh7XCgGH9-11" style="rounded=0;orthogonalLoop=1;jettySize=auto;html=1;strokeColor=#000000;endArrow=open;endFill=0;" edge="1" parent="q5yNdChSYQjeh7XCgGH9-1" source="q5yNdChSYQjeh7XCgGH9-8" target="q5yNdChSYQjeh7XCgGH9-10">
          <mxGeometry relative="1" as="geometry" />
        </mxCell>
        <mxCell id="q5yNdChSYQjeh7XCgGH9-13" style="edgeStyle=orthogonalEdgeStyle;rounded=0;orthogonalLoop=1;jettySize=auto;html=1;strokeColor=#000000;endArrow=open;endFill=0;" edge="1" parent="q5yNdChSYQjeh7XCgGH9-1" source="q5yNdChSYQjeh7XCgGH9-10" target="q5yNdChSYQjeh7XCgGH9-12">
          <mxGeometry relative="1" as="geometry" />
        </mxCell>
        <mxCell id="q5yNdChSYQjeh7XCgGH9-15" style="rounded=0;orthogonalLoop=1;jettySize=auto;html=1;strokeColor=#000000;endArrow=open;endFill=0;" edge="1" parent="q5yNdChSYQjeh7XCgGH9-1" source="q5yNdChSYQjeh7XCgGH9-12" target="q5yNdChSYQjeh7XCgGH9-14">
          <mxGeometry relative="1" as="geometry" />
        </mxCell>
        <mxCell id="q5yNdChSYQjeh7XCgGH9-17" style="edgeStyle=orthogonalEdgeStyle;rounded=0;orthogonalLoop=1;jettySize=auto;html=1;strokeColor=#000000;endArrow=open;endFill=0;" edge="1" parent="q5yNdChSYQjeh7XCgGH9-1" source="q5yNdChSYQjeh7XCgGH9-14" target="q5yNdChSYQjeh7XCgGH9-16">
          <mxGeometry relative="1" as="geometry" />
        </mxCell>
      </root>
    </mxGraphModel>
  </diagram>
</mxfile>
